HIERARCHY
ROOT Hips
{
    OFFSET   0.000000   0.000000   0.000000
    CHANNELS 6 Xposition Yposition Zposition Zrotation Xrotation Yrotation
    JOINT Chest
    {
        OFFSET   0.000000   8.007230   0.000000
        CHANNELS 3 Zrotation Xrotation Yrotation
        JOINT Chest2
        {
            OFFSET   0.000000  22.077100   0.000000
            CHANNELS 3 Zrotation Xrotation Yrotation
            JOINT Neck
            {
                OFFSET   0.000000  23.254800  -0.000021
                CHANNELS 3 Zrotation Xrotation Yrotation
                JOINT Head
                {
                    OFFSET   0.000000  14.370000   1.956610
                    CHANNELS 3 Zrotation Xrotation Yrotation
                    End Site
                    {
                        OFFSET   0.000000  19.566000   0.000000
                    }
                }
            }
            JOINT LeftCollar
            {
                OFFSET   3.911900  19.017000  -0.467063
                CHANNELS 3 Zrotation Xrotation Yrotation
                JOINT LeftShoulder
                {
                    OFFSET  10.383700   0.000000   0.000000
                    CHANNELS 3 Zrotation Xrotation Yrotation
                    JOINT LeftElbow
                    {
                        OFFSET  26.662100   0.001529   0.000325
                        CHANNELS 3 Zrotation Xrotation Yrotation
                        JOINT LeftWrist
                        {
                            OFFSET  28.869000  -0.000011  -0.000096
                            CHANNELS 3 Zrotation Xrotation Yrotation
                            JOINT LeftFinger0
                            {
                                OFFSET   2.044650  -2.323460   3.252850
                                CHANNELS 3 Zrotation Xrotation Yrotation
                                JOINT LeftFinger01
                                {
                                    OFFSET   3.088130   0.000000   0.000000
                                    CHANNELS 3 Zrotation Xrotation Yrotation
                                    JOINT LeftFinger02
                                    {
                                        OFFSET   2.639460   0.000000   0.000000
                                        CHANNELS 3 Zrotation Xrotation Yrotation
                                        End Site
                                        {
                                            OFFSET   2.582190   0.000000   0.000000
                                        }
                                    }
                                }
                            }
                            JOINT LeftFinger1
                            {
                                OFFSET   8.364480   0.000000   3.252850
                                CHANNELS 3 Zrotation Xrotation Yrotation
                                JOINT LeftFinger11
                                {
                                    OFFSET   4.646930   0.000000   0.000000
                                    CHANNELS 3 Zrotation Xrotation Yrotation
                                    JOINT LeftFinger12
                                    {
                                        OFFSET   2.323460   0.000000   0.000000
                                        CHANNELS 3 Zrotation Xrotation Yrotation
                                        End Site
                                        {
                                            OFFSET   2.273050   0.000000   0.000000
                                        }
                                    }
                                }
                            }
                            JOINT LeftFinger2
                            {
                                OFFSET   8.364480   0.000016   1.078090
                                CHANNELS 3 Zrotation Xrotation Yrotation
                                JOINT LeftFinger21
                                {
                                    OFFSET   5.111620   0.000000   0.000000
                                    CHANNELS 3 Zrotation Xrotation Yrotation
                                    JOINT LeftFinger22
                                    {
                                        OFFSET   2.788160   0.000017   0.000000
                                        CHANNELS 3 Zrotation Xrotation Yrotation
                                        End Site
                                        {
                                            OFFSET   2.727660   0.000000   0.000000
                                        }
                                    }
                                }
                            }
                            JOINT LeftFinger3
                            {
                                OFFSET   7.899780   0.000015  -1.078090
                                CHANNELS 3 Zrotation Xrotation Yrotation
                                JOINT LeftFinger31
                                {
                                    OFFSET   4.646920   0.000000   0.000000
                                    CHANNELS 3 Zrotation Xrotation Yrotation
                                    JOINT LeftFinger32
                                    {
                                        OFFSET   2.323470   0.000000   0.000000
                                        CHANNELS 3 Zrotation Xrotation Yrotation
                                        End Site
                                        {
                                            OFFSET   2.273050   0.000000   0.000000
                                        }
                                    }
                                }
                            }
                            JOINT LeftFinger4
                            {
                                OFFSET   7.435090   0.000000  -3.252850
                                CHANNELS 3 Zrotation Xrotation Yrotation
                                JOINT LeftFinger41
                                {
                                    OFFSET   3.717550   0.000000   0.000000
                                    CHANNELS 3 Zrotation Xrotation Yrotation
                                    JOINT LeftFinger42
                                    {
                                        OFFSET   1.858760   0.000000   0.000000
                                        CHANNELS 3 Zrotation Xrotation Yrotation
                                        End Site
                                        {
                                            OFFSET   1.818440   0.000000   0.000000
                                        }
                                    }
                                }
                            }
                        }
                    }
                }
            }
            JOINT RightCollar
            {
                OFFSET  -3.911900  19.017000  -0.467062
                CHANNELS 3 Zrotation Xrotation Yrotation
                JOINT RightShoulder
                {
                    OFFSET -10.383700   0.000015   0.000000
                    CHANNELS 3 Zrotation Xrotation Yrotation
                    JOINT RightElbow
                    {
                        OFFSET -26.662100   0.001341   0.000385
                        CHANNELS 3 Zrotation Xrotation Yrotation
                        JOINT RightWrist
                        {
                            OFFSET -28.869000   0.000025  -0.000080
                            CHANNELS 3 Zrotation Xrotation Yrotation
                            JOINT RightFinger0
                            {
                                OFFSET  -2.044650  -2.323490   3.252850
                                CHANNELS 3 Zrotation Xrotation Yrotation
                                JOINT RightFinger01
                                {
                                    OFFSET  -3.088130   0.000000   0.000000
                                    CHANNELS 3 Zrotation Xrotation Yrotation
                                    JOINT RightFinger02
                                    {
                                        OFFSET  -2.639460   0.000000   0.000000
                                        CHANNELS 3 Zrotation Xrotation Yrotation
                                        End Site
                                        {
                                            OFFSET  -2.582190   0.000000   0.000000
                                        }
                                    }
                                }
                            }
                            JOINT RightFinger1
                            {
                                OFFSET  -8.364480   0.000000   3.252850
                                CHANNELS 3 Zrotation Xrotation Yrotation
                                JOINT RightFinger11
                                {
                                    OFFSET  -4.646930   0.000000   0.000000
                                    CHANNELS 3 Zrotation Xrotation Yrotation
                                    JOINT RightFinger12
                                    {
                                        OFFSET  -2.323470   0.000000   0.000000
                                        CHANNELS 3 Zrotation Xrotation Yrotation
                                        End Site
                                        {
                                            OFFSET  -2.273050   0.000000   0.000000
                                        }
                                    }
                                }
                            }
                            JOINT RightFinger2
                            {
                                OFFSET  -8.364480   0.000000   1.078090
                                CHANNELS 3 Zrotation Xrotation Yrotation
                                JOINT RightFinger21
                                {
                                    OFFSET  -5.111610   0.000000   0.000000
                                    CHANNELS 3 Zrotation Xrotation Yrotation
                                    JOINT RightFinger22
                                    {
                                        OFFSET  -2.788160   0.000000   0.000000
                                        CHANNELS 3 Zrotation Xrotation Yrotation
                                        End Site
                                        {
                                            OFFSET  -2.727660   0.000000   0.000000
                                        }
                                    }
                                }
                            }
                            JOINT RightFinger3
                            {
                                OFFSET  -7.899780   0.000000  -1.078090
                                CHANNELS 3 Zrotation Xrotation Yrotation
                                JOINT RightFinger31
                                {
                                    OFFSET  -4.646920   0.000000   0.000000
                                    CHANNELS 3 Zrotation Xrotation Yrotation
                                    JOINT RightFinger32
                                    {
                                        OFFSET  -2.323470   0.000000   0.000000
                                        CHANNELS 3 Zrotation Xrotation Yrotation
                                        End Site
                                        {
                                            OFFSET  -2.273050   0.000000   0.000000
                                        }
                                    }
                                }
                            }
                            JOINT RightFinger4
                            {
                                OFFSET  -7.435090   0.000000  -3.252850
                                CHANNELS 3 Zrotation Xrotation Yrotation
                                JOINT RightFinger41
                                {
                                    OFFSET  -3.717550   0.000000   0.000000
                                    CHANNELS 3 Zrotation Xrotation Yrotation
                                    JOINT RightFinger42
                                    {
                                        OFFSET  -1.858770   0.000000   0.000000
                                        CHANNELS 3 Zrotation Xrotation Yrotation
                                        End Site
                                        {
                                            OFFSET  -1.818440   0.000000   0.000000
                                        }
                                    }
                                }
                            }
                        }
                    }
                }
            }
        }
    }
    JOINT LeftHip
    {
        OFFSET   9.783010   0.000000   0.000000
        CHANNELS 3 Zrotation Xrotation Yrotation
        JOINT LeftKnee
        {
            OFFSET   0.000070 -41.789100   0.000028
            CHANNELS 3 Zrotation Xrotation Yrotation
            JOINT LeftAnkle
            {
                OFFSET   0.000087 -41.133200  -0.000100
                CHANNELS 3 Zrotation Xrotation Yrotation
                JOINT LeftToe
                {
                    OFFSET   0.000000  -6.358960  14.674500
                    CHANNELS 3 Zrotation Xrotation Yrotation
                    End Site
                    {
                        OFFSET   0.000000   0.000000   3.913200
                    }
                }
            }
        }
    }
    JOINT RightHip
    {
        OFFSET  -9.783020   0.000000   0.000000
        CHANNELS 3 Zrotation Xrotation Yrotation
        JOINT RightKnee
        {
            OFFSET   0.000044 -41.789100  -0.000870
            CHANNELS 3 Zrotation Xrotation Yrotation
            JOINT RightAnkle
            {
                OFFSET  -0.000090 -41.133200  -0.000245
                CHANNELS 3 Zrotation Xrotation Yrotation
                JOINT RightToe
                {
                    OFFSET   0.000000  -6.358960  14.674500
                    CHANNELS 3 Zrotation Xrotation Yrotation
                    End Site
                    {
                        OFFSET   0.000000   0.000000   3.913200
                    }
                }
            }
        }
    }
}
MOTION
Frames: 5
Frame Time:   0.016667
 -9.463120  87.913900  -0.915456  -0.109989 -22.837400   5.662540   3.387630  13.175600  -4.124480   8.097570  26.032500  -9.448690   2.293510  -3.875930   0.155234   3.817710  -7.820960   1.006610  -5.564050  -1.770360   7.500460 -51.414700  33.433600 -39.137600   2.193370   4.983530 -113.468000  28.784000 -18.020300  11.833300  51.888900  36.021000 -70.805400  -5.066210  -0.087882  -0.007756   2.466930  -0.042306  -0.016265 -36.532200  -3.768170   4.859980 -30.018400  -0.038558  -0.043839 -20.718400  -0.015077  -0.052977 -57.133700  -5.290270   3.257380 -55.520300   0.008765  -0.070045 -42.084900   0.033612  -0.028075 -47.841000  -6.226400   5.485680 -53.515200  -0.018593  -0.014433 -38.908900   0.002179  -0.019537 -32.124700 -13.243300  20.036700 -51.773700  -0.069416  -0.133488 -34.481200   0.014792  -0.097078   6.952290   0.712381  14.653900  48.713300   7.506430  36.769800  -9.486100  -0.163272 107.795000 -49.957100   9.072080  35.396500 -41.150200  29.032500  62.886300  23.840700   0.004038  -0.001709   6.920360   0.002174   0.001014  82.687600   5.049320   0.700971  67.687000   0.033956  -0.016574  50.765300   0.007890  -0.026657  77.207200   0.150798   0.078338  77.213100   0.031340  -0.024388  57.909900  -0.001370  -0.028856  76.020800  -4.993010  -1.239080  76.076000   0.036418  -0.024986  57.057000   0.000539  -0.031384  61.891200  -9.160100  -4.942840  93.425600   0.010798  -0.048012  62.221500  -0.023481  -0.018984  10.006000  10.191500  -2.125460   1.839880  25.681000   9.174770  -9.753190 -11.054100  -3.481540   0.000000   0.000000  -0.000000   7.062890  19.545300  -6.830000  -1.243830  10.044200 -13.179500  -0.542071  -8.335670  -3.174180  -0.000000   0.000000   0.000000
 -9.450530  87.922100  -0.865483  -0.050125 -22.818000   5.882580   3.288560  13.194100  -4.020640   7.868620  26.086400  -9.210820   2.374100  -4.069960   0.169620   3.955790  -8.208210   1.623640  -5.718950  -1.827770   7.234400 -51.796200  33.391300 -39.177900   2.264720   5.011580 -113.212000  29.701300 -17.715600  10.706000  51.937800  35.360700 -72.828300  -5.357240  -0.076753   0.144122   2.321360  -0.042113   0.066069 -40.003300  -3.473790   4.034700 -32.824800  -0.035152  -0.044846 -23.075800  -0.010904  -0.052345 -60.496500  -4.768250   2.588340 -58.570300   0.014557  -0.065625 -44.489600   0.034440  -0.023419 -53.921500  -6.231980   4.510010 -55.157900   0.010397  -0.009463 -41.268100   0.014327   0.004395 -36.466900 -13.054100  17.977300 -57.903800  -0.021322  -0.130834 -38.563900   0.041844  -0.076217   6.927160   0.552933  14.438400  48.700600   8.805020  36.756600  -9.199790  -0.281574 108.084000 -49.857000   8.333570  35.429700 -41.330200  29.568700  64.145300  23.495400  -0.045180  -0.003378   6.747710  -0.022371   0.001429  80.701000   4.488380   0.729646  66.054100  -0.018772  -0.025550  49.540600  -0.024852  -0.008888  74.609400  -0.147485  -0.045373  74.611800  -0.027117  -0.039633  55.958900  -0.038939  -0.008301  73.233200  -4.928690  -1.574480  73.019900  -0.057292  -0.068365  54.825100  -0.068843  -0.008921  59.923300  -8.097060  -4.666900  90.357700  -0.142988  -0.143303  60.178300  -0.135360   0.009550  10.012700  10.155500  -2.138080   1.861650  25.701800   9.106270  -9.770950 -11.061300  -3.609270   0.000000   0.000000   0.000000   7.074280  19.576700  -6.849430  -1.208040  10.027100 -13.255500  -0.557943  -8.359400  -3.288800  -0.000000   0.000000   0.000000
 -9.431180  87.925300  -0.802298   0.008760 -22.790800   6.117160   3.190030  13.211100  -3.937780   7.645600  26.135400  -9.016350   2.542640  -4.245320   0.188358   4.241600  -8.555330   2.916030  -5.858640  -1.870020   7.015270 -52.187600  33.296600 -39.136200   2.191940   5.162280 -113.102000  30.377900 -17.722400   9.548840  50.920700  34.719100 -75.028900  -7.395850  -0.048531   0.295999   1.301960  -0.040763   0.148402 -43.022300  -3.092920   3.342700 -35.269700  -0.024815  -0.045852 -25.307500  -0.003784  -0.047921 -61.913300  -4.004630   2.160580 -61.982400   0.018120  -0.049279 -46.486800   0.035268  -0.016251 -57.064800  -6.210610   4.008910 -56.250700   0.045127  -0.004583 -42.432200   0.026476   0.019575 -39.055500 -12.651900  15.255300 -61.158900   0.046229  -0.112255 -40.731900   0.068896  -0.036948   6.896010   0.494409  14.257300  48.574700   9.823300  36.650100  -9.084260  -0.405070 108.448000 -50.144600   7.885020  36.176900 -41.008700  29.107100  65.490000  23.150200  -0.081293  -0.006323   6.575060  -0.040652   0.001572  76.010700   3.281910   0.745229  62.200500  -0.071500  -0.031035  46.650400  -0.057594   0.015934  70.418200  -0.824035  -0.420271  70.410300  -0.085574  -0.049687  52.807700  -0.073037   0.019918  69.258600  -4.681300  -1.923760  69.088400  -0.126061  -0.107470  51.869800  -0.125979   0.010045  56.657200  -6.223080  -4.160180  85.276000  -0.256196  -0.215166  56.794200  -0.221307   0.028822  10.027200  10.096000  -2.146570   1.888590  25.737500   9.026460  -9.785240 -11.074100  -3.748280  -0.000000   0.000000  -0.000000   7.087700  19.606100  -6.853270  -1.168040  10.006300 -13.351000  -0.573779  -8.384770  -3.418170  -0.000000   0.000000   0.000000
 -9.406690  87.925300  -0.728166   0.066347 -22.765200   6.354850   3.095600  13.237200  -3.884350   7.439720  26.200600  -8.885090   2.757370  -4.392750   0.211353   4.602790  -8.845400   4.597250  -5.963030  -1.931660   6.890570 -52.676100  33.205200 -38.800700   1.936730   5.406260 -113.186000  30.616100 -18.454500   8.172910  48.307300  35.068600 -75.349600 -13.299100   0.008708   0.295607  -1.649610  -0.016136   0.148337 -45.207600  -2.834420   2.845040 -37.045200  -0.000492  -0.014063 -27.003000   0.002450  -0.011946 -63.418800  -3.571600   1.816950 -63.651100   0.011871  -0.005997 -47.696400   0.011444   0.003074 -56.350300  -6.092720   4.094150 -57.336400   0.051826   0.023337 -42.490500   0.017082   0.039899 -39.267700 -12.306000  14.472900 -61.117400   0.075962  -0.037249 -40.704300   0.056199   0.015825   6.923550   0.551523  14.178600  48.483400  10.052700  36.391300  -9.190020   0.109718 109.032000 -51.307200   8.202220  38.286500 -38.643300  27.028100  66.491900  23.997100  -0.079295  -0.009758   6.998510  -0.039722   0.001873  68.637500   1.583280   0.317118  56.141100  -0.070874  -0.024384  42.105800  -0.055543   0.026380  63.982200  -1.865170  -1.174020  63.982900  -0.080264  -0.032143  47.987200  -0.060359   0.030015  62.694000  -4.012790  -2.146820  63.763800  -0.125679  -0.105575  47.612400  -0.123027   0.015355  50.611600  -4.045200  -3.502660  76.073700  -0.250493  -0.209096  50.665400  -0.215805   0.024365  10.044700  10.037900  -2.131610   1.928970  25.775700   8.922070  -9.798040 -11.099600  -3.895000   0.000000   0.000000   0.000000   7.113800  19.637300  -6.838430  -1.130810   9.989920 -13.467900  -0.581619  -8.421280  -3.550120   0.000000   0.000000   0.000000
 -9.377210  87.925000  -0.645349   0.113219 -22.747200   6.567290   3.003810  13.253800  -3.842220   7.240070  26.243200  -8.776620   3.002270  -4.512640   0.236209   5.018710  -9.074350   6.412130  -6.011440  -1.968530   6.847490 -53.226800  33.082200 -38.283900   1.465520   5.751680 -113.465000  30.589500 -19.731200   7.074920  45.926700  36.003000 -74.900300 -20.827000   0.048855   0.292859  -5.413450   0.007334   0.147882 -46.187300  -2.708590   2.626470 -37.842700   0.016899   0.017725 -27.811900   0.008499   0.020237 -64.060700  -3.377820   1.671330 -64.231000   0.005621   0.025359 -48.148100  -0.012380   0.016791 -53.569500  -5.932480   4.489640 -57.876900   0.052783   0.043958 -42.498800   0.007687   0.051361 -39.021900 -11.799600  14.336400 -60.826800   0.086239   0.021833 -40.510700   0.035494   0.050190   6.976720   0.669488  14.161500  48.511300  10.115000  36.121900  -9.543620   0.861714 109.591000 -52.909500   9.044450  40.920400 -35.961300  24.494300  67.160900  25.258300  -0.065308  -0.011917   7.629130  -0.033211   0.002186  61.040000  -0.115175  -0.341149  49.922200  -0.066498  -0.004572  37.441600  -0.041184   0.029773  57.790900  -2.873880  -1.933240  57.828500  -0.055813   0.001530  43.371400  -0.028896   0.032448  56.214800  -3.527020  -2.456700  58.553900  -0.123007  -0.092308  43.434400  -0.102366   0.016114  44.047300  -2.676400  -3.080870  66.200200  -0.210576  -0.166609  44.089400  -0.177297   0.019908  10.070400  10.003400  -2.103100   1.968080  25.816400   8.819990  -9.809380 -11.136400  -4.036240   0.000000   0.000000  -0.000000   7.143060  19.673300  -6.809820  -1.094390   9.979450 -13.587400  -0.584405  -8.461230  -3.667320   0.000000   0.000000  -0.000000
